<?xml version="1.0" encoding="UTF-8" standalone="no"?>
<!DOCTYPE svg PUBLIC "-//W3C//DTD SVG 1.1//EN" "http://www.w3.org/Graphics/SVG/1.1/DTD/svg11.dtd">
<svg width="100%" height="100%" viewBox="0 0 1000 1000" version="1.1" xmlns="http://www.w3.org/2000/svg" xmlns:xlink="http://www.w3.org/1999/xlink" xml:space="preserve" xmlns:serif="http://www.serif.com/" style="fill-rule:evenodd;clip-rule:evenodd;stroke-linejoin:round;stroke-miterlimit:1.41421;">
    <g transform="matrix(1,0,0,1,-1482.11,0)">
        <g id="diagram-alt" serif:id="diagram alt" transform="matrix(1,0,0,1,1482.11,0)">
            <rect x="0" y="0" width="1000" height="1000" style="fill:none;"/>
            <clipPath id="_clip1">
                <rect x="0" y="0" width="1000" height="1000"/>
            </clipPath>
            <g clip-path="url(#_clip1)">
                <g id="donut-private-orgs---public-orgs---science" serif:id="donut private orgs - public orgs - science" transform="matrix(0,-1,1,0,-3.17448,1000)">
                    <g id="public-orgs" serif:id="public orgs">
                        <g id="background-publick-organizations" serif:id="background-publick organizations" transform="matrix(1.73663,-8.31795e-33,8.31795e-33,1.73663,-503.623,-542.127)">
                            <path d="M864,601C864,442.494 735.506,314 577,314C526.621,314 477.13,327.261 433.5,352.451L516.73,496.609C535.054,486.03 555.841,480.46 577,480.46C643.572,480.46 697.54,534.428 697.54,601L864,601Z" style="fill:url(#_Radial2);"/>
                        </g>
                        <g transform="matrix(1,-4.78971e-33,4.78971e-33,1,-134.809,-211.857)">
                            <g id="public-organizations" serif:id="public organizations">
                                <g transform="matrix(0.99924,0.0389695,-0.0389695,0.99924,12.7094,-24.5068)">
                                    <text x="634.987px" y="313.759px" style="font-family:'Inter-Medium', 'Inter';font-weight:500;font-size:42px;">P</text>
                                </g>
                                <g transform="matrix(0.994722,0.102606,-0.102606,0.994722,35.8002,-66.2906)">
                                    <text x="662.267px" y="314.845px" style="font-family:'Inter-Medium', 'Inter';font-weight:500;font-size:42px;">u</text>
                                </g>
                                <g transform="matrix(0.985636,0.168883,-0.168883,0.985636,63.4828,-111.555)">
                                    <text x="687.541px" y="317.421px" style="font-family:'Inter-Medium', 'Inter';font-weight:500;font-size:42px;">b</text>
                                </g>
                                <g transform="matrix(0.976904,0.213679,-0.213679,0.976904,85.3153,-145.098)">
                                    <text x="713.861px" y="322.108px" style="font-family:'Inter-Medium', 'Inter';font-weight:500;font-size:42px;">l</text>
                                </g>
                                <g transform="matrix(0.9707,0.240294,-0.240294,0.9707,99.1834,-164.571)">
                                    <text x="724.432px" y="324.425px" style="font-family:'Inter-Medium', 'Inter';font-weight:500;font-size:42px;">i</text>
                                </g>
                                <g transform="matrix(0.95904,0.283271,-0.283271,0.95904,122.71,-194.826)">
                                    <text x="735.043px" y="326.906px" style="font-family:'Inter-Medium', 'Inter';font-weight:500;font-size:42px;">c</text>
                                </g>
                                <g transform="matrix(0.928943,0.370224,-0.370224,0.928943,179.635,-260.821)">
                                    <text x="769.284px" y="337.558px" style="font-family:'Inter-Medium', 'Inter';font-weight:500;font-size:42px;">o</text>
                                </g>
                                <g transform="matrix(0.906823,0.421512,-0.421512,0.906823,220.24,-301.961)">
                                    <text x="793.122px" y="347.176px" style="font-family:'Inter-Medium', 'Inter';font-weight:500;font-size:42px;">r</text>
                                </g>
                                <g transform="matrix(0.884617,0.466319,-0.466319,0.884617,258.35,-336.026)">
                                    <text x="808.197px" y="354.045px" style="font-family:'Inter-Medium', 'Inter';font-weight:500;font-size:42px;">g</text>
                                </g>
                                <g transform="matrix(0.853235,0.521526,-0.521526,0.853235,313.123,-379.863)">
                                    <text x="831.481px" y="366.407px" style="font-family:'Inter-Medium', 'Inter';font-weight:500;font-size:42px;">a</text>
                                </g>
                                <g transform="matrix(0.818408,0.574638,-0.574638,0.818408,372.597,-420.875)">
                                    <text x="852.215px" y="379.092px" style="font-family:'Inter-Medium', 'Inter';font-weight:500;font-size:42px;">n</text>
                                </g>
                                <g transform="matrix(0.791546,0.61111,-0.61111,0.791546,422.668,-451.369)">
                                    <text x="872.957px" y="393.868px" style="font-family:'Inter-Medium', 'Inter';font-weight:500;font-size:42px;">i</text>
                                </g>
                                <g transform="matrix(0.764336,0.644818,-0.644818,0.764336,465.996,-474.158)">
                                    <text x="881.688px" y="400.443px" style="font-family:'Inter-Medium', 'Inter';font-weight:500;font-size:42px;">z</text>
                                </g>
                                <g transform="matrix(0.72569,0.688022,-0.688022,0.72569,532.771,-504.992)">
                                    <text x="899.694px" y="415.649px" style="font-family:'Inter-Medium', 'Inter';font-weight:500;font-size:42px;">a</text>
                                </g>
                                <g transform="matrix(0.689643,0.72415,-0.72415,0.689643,597.855,-530.004)">
                                    <text x="917.25px" y="432.479px" style="font-family:'Inter-Medium', 'Inter';font-weight:500;font-size:42px;">t</text>
                                </g>
                                <g transform="matrix(0.664691,0.747118,-0.747118,0.664691,643.064,-544.605)">
                                    <text x="928.262px" y="444.119px" style="font-family:'Inter-Medium', 'Inter';font-weight:500;font-size:42px;">i</text>
                                </g>
                                <g transform="matrix(0.630007,0.77659,-0.77659,0.630007,697.307,-559.301)">
                                    <text x="935.62px" y="452.148px" style="font-family:'Inter-Medium', 'Inter';font-weight:500;font-size:42px;">o</text>
                                </g>
                                <g transform="matrix(0.579078,0.815272,-0.815272,0.579078,785.581,-577.259)">
                                    <text x="951.829px" y="472.156px" style="font-family:'Inter-Medium', 'Inter';font-weight:500;font-size:42px;">n</text>
                                </g>
                                <g transform="matrix(0.52858,0.848883,-0.848883,0.52858,874.171,-588.098)">
                                    <text x="966.578px" y="493.009px" style="font-family:'Inter-Medium', 'Inter';font-weight:500;font-size:42px;">s</text>
                                </g>
                            </g>
                        </g>
                    </g>
                    <g id="science">
                        <g id="background-science" transform="matrix(1.73663,-8.31795e-33,8.31795e-33,1.73663,-503.623,-542.127)">
                            <path d="M433.5,352.451C344.702,403.718 290,498.465 290,601C290,703.535 344.702,798.282 433.5,849.549L516.73,705.391C479.435,683.858 456.46,644.065 456.46,601C456.46,557.935 479.435,518.142 516.73,496.609L433.5,352.451Z" style="fill:url(#_Radial3);"/>
                        </g>
                        <g transform="matrix(1,-4.78971e-33,4.78971e-33,1,-191.174,-196.916)">
                            <g id="science1" serif:id="science">
                                <g transform="matrix(-0.171753,0.98514,-0.98514,-0.171753,956.848,428.594)">
                                    <text x="298.256px" y="616.527px" style="font-family:'Inter-Medium', 'Inter';font-weight:500;font-size:42px;">S</text>
                                </g>
                                <g transform="matrix(-0.107467,0.994209,-0.994209,-0.107467,964.985,420.807)">
                                    <text x="293.607px" y="643.553px" style="font-family:'Inter-Medium', 'Inter';font-weight:500;font-size:42px;">c</text>
                                </g>
                                <g transform="matrix(-0.0594907,0.998229,-0.998229,-0.0594907,976.578,418.748)">
                                    <text x="291.021px" y="669.429px" style="font-family:'Inter-Medium', 'Inter';font-weight:500;font-size:42px;">i</text>
                                </g>
                                <g transform="matrix(-0.0117173,0.999931,-0.999931,-0.0117173,974.994,399.301)">
                                    <text x="290.172px" y="681.469px" style="font-family:'Inter-Medium', 'Inter';font-weight:500;font-size:42px;">e</text>
                                </g>
                                <g transform="matrix(0.0514605,0.998675,-0.998675,0.0514605,980.614,380.722)">
                                    <text x="289.884px" y="706.583px" style="font-family:'Inter-Medium', 'Inter';font-weight:500;font-size:42px;">n</text>
                                </g>
                                <g transform="matrix(0.113756,0.993509,-0.993509,0.113756,985.433,359.468)">
                                    <text x="291.228px" y="732.086px" style="font-family:'Inter-Medium', 'Inter';font-weight:500;font-size:42px;">c</text>
                                </g>
                                <g transform="matrix(0.17479,0.984606,-0.984606,0.17479,987.198,334.586)">
                                    <text x="293.992px" y="756.234px" style="font-family:'Inter-Medium', 'Inter';font-weight:500;font-size:42px;">e</text>
                                </g>
                            </g>
                        </g>
                    </g>
                    <g id="private-orgs" serif:id="private orgs">
                        <g id="background-private-organizations" serif:id="background-private organizations" transform="matrix(1.73663,-8.31795e-33,8.31795e-33,1.73663,-503.623,-542.127)">
                            <path d="M433.5,849.549C477.13,874.739 526.621,888 577,888C735.506,888 864,759.506 864,601L697.54,601C697.54,667.572 643.572,721.54 577,721.54C555.841,721.54 535.054,715.97 516.73,705.391L433.5,849.549Z" style="fill:url(#_Radial4);"/>
                        </g>
                        <g transform="matrix(1,-4.78971e-33,4.78971e-33,1,-134.881,-99.4128)">
                            <g id="private-organizations" serif:id="private organizations">
                                <g transform="matrix(-0.52826,0.849083,-0.849083,-0.52826,2177.22,390.025)">
                                    <text x="980.264px" y="799.831px" style="font-family:'Inter-Medium', 'Inter';font-weight:500;font-size:42px;">P</text>
                                </g>
                                <g transform="matrix(-0.574791,0.8183,-0.8183,-0.574791,2194.27,505.695)">
                                    <text x="965.75px" y="822.945px" style="font-family:'Inter-Medium', 'Inter';font-weight:500;font-size:42px;">r</text>
                                </g>
                                <g transform="matrix(-0.600397,0.799702,-0.799702,-0.600397,2199.23,574.028)">
                                    <text x="956.199px" y="836.482px" style="font-family:'Inter-Medium', 'Inter';font-weight:500;font-size:42px;">i</text>
                                </g>
                                <g transform="matrix(-0.634635,0.772812,-0.772812,-0.634635,2205.78,647.623)">
                                    <text x="949.803px" y="845.23px" style="font-family:'Inter-Medium', 'Inter';font-weight:500;font-size:42px;">v</text>
                                </g>
                                <g transform="matrix(-0.677951,0.735107,-0.735107,-0.677951,2203.36,761.541)">
                                    <text x="934.863px" y="863.413px" style="font-family:'Inter-Medium', 'Inter';font-weight:500;font-size:42px;">a</text>
                                </g>
                                <g transform="matrix(-0.714575,0.699559,-0.699559,-0.714575,2190.9,868.508)">
                                    <text x="918.272px" y="881.206px" style="font-family:'Inter-Medium', 'Inter';font-weight:500;font-size:42px;">t</text>
                                </g>
                                <g transform="matrix(-0.749345,0.66218,-0.66218,-0.749345,2177.61,960.438)">
                                    <text x="907.025px" y="892.364px" style="font-family:'Inter-Medium', 'Inter';font-weight:500;font-size:42px;">e</text>
                                </g>
                                <g transform="matrix(-0.806946,0.590625,-0.590625,-0.806946,2129.9,1136.19)">
                                    <text x="879.261px" y="916.189px" style="font-family:'Inter-Medium', 'Inter';font-weight:500;font-size:42px;">o</text>
                                </g>
                                <g transform="matrix(-0.838481,0.544931,-0.544931,-0.838481,2085.67,1244.43)">
                                    <text x="858.406px" y="931.315px" style="font-family:'Inter-Medium', 'Inter';font-weight:500;font-size:42px;">r</text>
                                </g>
                                <g transform="matrix(-0.863492,0.504363,-0.504363,-0.863492,2049.32,1325.34)">
                                    <text x="845.306px" y="939.997px" style="font-family:'Inter-Medium', 'Inter';font-weight:500;font-size:42px;">g</text>
                                </g>
                                <g transform="matrix(-0.893736,0.448593,-0.448593,-0.893736,1985.27,1436.14)">
                                    <text x="822.536px" y="953.209px" style="font-family:'Inter-Medium', 'Inter';font-weight:500;font-size:42px;">a</text>
                                </g>
                                <g transform="matrix(-0.920631,0.390434,-0.390434,-0.920631,1914.36,1539.11)">
                                    <text x="800.743px" y="964.134px" style="font-family:'Inter-Medium', 'Inter';font-weight:500;font-size:42px;">n</text>
                                </g>
                                <g transform="matrix(-0.937569,0.3478,-0.3478,-0.937569,1844.58,1616.76)">
                                    <text x="777.184px" y="973.934px" style="font-family:'Inter-Medium', 'Inter';font-weight:500;font-size:42px;">i</text>
                                </g>
                                <g transform="matrix(-0.95184,0.306594,-0.306594,-0.95184,1797,1673.38)">
                                    <text x="767.074px" y="977.826px" style="font-family:'Inter-Medium', 'Inter';font-weight:500;font-size:42px;">z</text>
                                </g>
                                <g transform="matrix(-0.968216,0.250116,-0.250116,-0.968216,1711.94,1752.55)">
                                    <text x="744.614px" y="985.048px" style="font-family:'Inter-Medium', 'Inter';font-weight:500;font-size:42px;">a</text>
                                </g>
                                <g transform="matrix(-0.979855,0.199708,-0.199708,-0.979855,1625.41,1818.05)">
                                    <text x="721.009px" y="991.005px" style="font-family:'Inter-Medium', 'Inter';font-weight:500;font-size:42px;">t</text>
                                </g>
                                <g transform="matrix(-0.986129,0.16598,-0.16598,-0.986129,1565.78,1857.46)">
                                    <text x="705.277px" y="994.156px" style="font-family:'Inter-Medium', 'Inter';font-weight:500;font-size:42px;">i</text>
                                </g>
                                <g transform="matrix(-0.992698,0.120628,-0.120628,-0.992698,1504.19,1901.19)">
                                    <text x="694.553px" y="996.123px" style="font-family:'Inter-Medium', 'Inter';font-weight:500;font-size:42px;">o</text>
                                </g>
                                <g transform="matrix(-0.998366,0.0571395,-0.0571395,-0.998366,1394.05,1958.56)">
                                    <text x="669.026px" y="999.208px" style="font-family:'Inter-Medium', 'Inter';font-weight:500;font-size:42px;">n</text>
                                </g>
                                <g transform="matrix(-0.999997,-0.0025704,0.0025704,-0.999997,1284.55,2002.88)">
                                    <text x="643.564px" y="1000.62px" style="font-family:'Inter-Medium', 'Inter';font-weight:500;font-size:42px;">s</text>
                                </g>
                            </g>
                        </g>
                    </g>
                </g>
                <g id="area-local-community" serif:id="area local community" transform="matrix(0.339659,-0.940549,0.940549,0.339659,-138.121,800.362)">
                    <g id="background-local-community" serif:id="background-local community" transform="matrix(1.18598,0.13406,0.13406,-1.18598,-1268.76,1742.64)">
                        <path d="M1346.38,1461.01L1382.69,1461L1459.49,1458.95L1459.49,1488.12L1462.83,1488.12L1462.83,1457.55L1567.42,1416.5L1620.3,1352.14L1657.06,1368.78L1659.39,1361.79L1623.24,1344.9L1654.47,1264.42C1681.07,1284.05 1694.41,1293.48 1694.48,1292.7C1694.55,1291.93 1695.56,1289.74 1697.51,1286.15L1657.06,1256.11L1659.39,1231.34L1682.55,1206.18L1676.86,1196.59L1657.06,1218.46L1595.74,1090.91L1620.3,1074.27L1618.41,1068.56L1592.42,1085.25L1538.09,972.655L1510.78,947.204L1414.47,916.656L1376.75,912.76L1382.68,888.643L1371.65,888.643L1365.13,912.443L1262.41,931.086L1199.35,963.738L1187.63,931.087C1183.67,934.308 1181.38,936.29 1180.74,937.032C1180.11,937.774 1183.57,948.939 1191.13,970.528L1177.63,986.33L1143.96,979.237C1140.41,980.911 1140.41,982.551 1143.96,984.159C1147.52,985.767 1157.43,988.61 1173.7,992.691L1127.26,1090.91L1073.23,1199.54L1043.95,1191.9L1041.21,1200.34L1074.08,1207.61L1072.03,1275.79L1072.03,1333.5L1047.52,1335.45L1047.52,1344.81L1076.41,1344.81L1118.81,1419.44L1098.81,1444.32L1105.21,1449.41L1125.12,1426.33L1131.57,1429.87L1115.18,1455.33L1121.34,1459.46L1139.41,1434.16L1185.55,1459.46L1261.13,1485.79L1261.13,1509.09L1265.62,1509.09L1265.62,1485.79L1284.07,1485.79L1298.44,1517.37L1306.81,1513.71L1293.52,1483.64L1334.83,1460.49L1352.64,1496.81L1361.34,1492.63L1346.38,1461.01Z" style="fill:rgb(212,221,194);"/>
                        <path d="M1659.39,1361.79L1623.24,1344.9L1654.47,1264.42L1656.92,1266.23L1659.3,1267.98L1661.6,1269.67L1663.82,1271.3L1665.97,1272.87L1668.03,1274.38L1670.02,1275.84L1670.99,1276.54L1671.93,1277.23L1672.86,1277.9L1673.77,1278.56L1674.65,1279.2L1675.52,1279.83L1676.37,1280.45L1677.2,1281.05L1678.01,1281.63L1678.8,1282.2L1679.57,1282.75L1680.32,1283.29L1681.06,1283.82L1681.77,1284.32L1682.46,1284.82L1683.14,1285.3L1683.79,1285.76L1684.42,1286.21L1685.04,1286.65L1685.64,1287.07L1686.21,1287.47L1686.77,1287.86L1687.31,1288.24L1687.83,1288.6L1688.33,1288.94L1688.81,1289.27L1689.27,1289.58L1689.71,1289.88L1690.13,1290.17L1690.53,1290.44L1690.91,1290.69L1691.27,1290.93L1691.62,1291.16L1691.94,1291.37L1692.25,1291.57L1692.53,1291.75L1692.8,1291.91L1692.92,1291.99L1693.04,1292.06L1693.16,1292.13L1693.27,1292.2L1693.38,1292.26L1693.48,1292.32L1693.57,1292.37L1693.67,1292.42L1693.75,1292.47L1693.83,1292.52L1693.91,1292.56L1693.98,1292.59L1694.05,1292.62L1694.11,1292.65L1694.17,1292.68L1694.22,1292.7L1694.27,1292.72L1694.31,1292.73L1694.35,1292.74L1694.37,1292.74L1694.38,1292.75L1694.4,1292.75L1694.41,1292.75L1694.43,1292.75L1694.44,1292.75L1694.45,1292.74L1694.46,1292.74L1694.46,1292.74L1694.47,1292.73L1694.48,1292.73L1694.48,1292.72L1694.48,1292.71L1694.48,1292.7L1694.49,1292.67L1694.49,1292.63L1694.5,1292.59L1694.51,1292.54L1694.52,1292.5L1694.53,1292.45L1694.54,1292.4L1694.55,1292.35L1694.57,1292.29L1694.59,1292.24L1694.6,1292.18L1694.62,1292.12L1694.64,1292.06L1694.66,1291.99L1694.71,1291.86L1694.77,1291.72L1694.82,1291.57L1694.89,1291.4L1694.96,1291.24L1695.03,1291.06L1695.11,1290.88L1695.2,1290.68L1695.29,1290.48L1695.39,1290.28L1695.49,1290.06L1695.6,1289.83L1695.71,1289.6L1695.83,1289.36L1695.96,1289.11L1696.09,1288.85L1696.22,1288.58L1696.37,1288.31L1696.51,1288.02L1696.66,1287.73L1696.82,1287.43L1696.98,1287.12L1697.15,1286.81L1697.33,1286.48L1697.51,1286.15L1657.06,1256.11L1659.39,1231.34L1682.55,1206.18L1676.86,1196.59L1657.06,1218.46L1595.74,1090.91L1620.3,1074.27L1618.41,1068.56L1592.42,1085.25L1538.09,972.655L1510.78,947.204L1414.47,916.656L1376.75,912.76L1382.68,888.643L1371.65,888.643L1365.13,912.443L1262.41,931.086L1199.35,963.738L1187.63,931.087L1186.91,931.676L1186.23,932.237L1185.58,932.768L1184.97,933.27L1184.69,933.511L1184.41,933.744L1184.14,933.97L1183.88,934.188L1183.63,934.399L1183.39,934.603L1183.16,934.8L1182.94,934.989L1182.73,935.172L1182.53,935.347L1182.34,935.514L1182.16,935.675L1181.99,935.828L1181.82,935.974L1181.67,936.112L1181.53,936.243L1181.4,936.367L1181.28,936.484L1181.16,936.594L1181.06,936.696L1180.96,936.791L1180.88,936.879L1180.81,936.959L1180.77,936.997L1180.74,937.032L1180.74,937.042L1180.73,937.052L1180.72,937.063L1180.72,937.075L1180.71,937.088L1180.7,937.102L1180.7,937.117L1180.7,937.133L1180.69,937.167L1180.68,937.205L1180.68,937.248L1180.67,937.294L1180.67,937.344L1180.67,937.397L1180.67,937.455L1180.67,937.516L1180.68,937.581L1180.68,937.65L1180.69,937.723L1180.7,937.799L1180.71,937.88L1180.72,937.964L1180.73,938.052L1180.75,938.144L1180.76,938.239L1180.78,938.339L1180.8,938.442L1180.82,938.549L1180.84,938.66L1180.86,938.775L1180.89,938.893L1180.91,939.016L1180.94,939.142L1180.97,939.272L1181.04,939.543L1181.11,939.83L1181.18,940.132L1181.26,940.449L1181.35,940.782L1181.44,941.129L1181.54,941.492L1181.65,941.871L1181.76,942.264L1181.88,942.673L1182,943.097L1182.13,943.537L1182.26,943.991L1182.4,944.461L1182.55,944.946L1182.71,945.447L1182.87,945.963L1183.03,946.494L1183.2,947.04L1183.38,947.601L1183.56,948.178L1183.75,948.77L1183.95,949.378L1184.15,950L1184.36,950.638L1184.57,951.291L1184.79,951.96L1185.02,952.643L1185.25,953.342L1185.48,954.056L1185.73,954.786L1185.98,955.531L1186.23,956.291L1186.49,957.066L1186.76,957.857L1187.03,958.662L1187.31,959.483L1187.6,960.32L1187.89,961.172L1188.19,962.038L1188.49,962.921L1188.8,963.818L1189.12,964.731L1189.44,965.659L1189.77,966.602L1190.1,967.561L1190.44,968.534L1191.13,970.528L1177.63,986.33L1143.96,979.237L1143.8,979.315L1143.64,979.393L1143.49,979.472L1143.34,979.55L1143.2,979.628L1143.13,979.667L1143.06,979.707L1142.99,979.746L1142.92,979.785L1142.86,979.824L1142.8,979.863L1142.74,979.902L1142.67,979.941L1142.62,979.98L1142.56,980.019L1142.5,980.058L1142.45,980.097L1142.39,980.136L1142.34,980.175L1142.29,980.214L1142.24,980.253L1142.19,980.291L1142.14,980.33L1142.1,980.369L1142.05,980.408L1142.01,980.447L1141.96,980.486L1141.92,980.525L1141.88,980.563L1141.85,980.602L1141.81,980.641L1141.77,980.68L1141.74,980.719L1141.7,980.757L1141.67,980.796L1141.64,980.835L1141.61,980.874L1141.59,980.912L1141.56,980.951L1141.53,980.99L1141.51,981.028L1141.49,981.067L1141.46,981.106L1141.44,981.144L1141.43,981.183L1141.41,981.222L1141.39,981.26L1141.38,981.299L1141.36,981.337L1141.35,981.376L1141.34,981.415L1141.33,981.453L1141.32,981.492L1141.32,981.53L1141.31,981.569L1141.31,981.607L1141.3,981.646L1141.3,981.684L1141.3,981.723L1141.3,981.761L1141.3,981.799L1141.31,981.838L1141.31,981.876L1141.32,981.915L1141.32,981.953L1141.33,981.991L1141.34,982.03L1141.35,982.068L1141.36,982.107L1141.38,982.145L1141.39,982.183L1141.41,982.221L1141.43,982.26L1141.44,982.298L1141.46,982.336L1141.49,982.375L1141.51,982.413L1141.53,982.451L1141.56,982.489L1141.59,982.527L1141.61,982.566L1141.64,982.604L1141.67,982.642L1141.7,982.68L1141.74,982.718L1141.77,982.756L1141.81,982.794L1141.85,982.833L1141.88,982.871L1141.92,982.909L1141.96,982.947L1142.01,982.985L1142.05,983.023L1142.1,983.061L1142.14,983.099L1142.19,983.137L1142.24,983.175L1142.29,983.213L1142.34,983.251L1142.39,983.289L1142.45,983.327L1142.5,983.365L1142.56,983.403L1142.62,983.441L1142.68,983.479L1142.74,983.516L1142.8,983.554L1142.86,983.592L1142.92,983.63L1142.99,983.668L1143.06,983.706L1143.13,983.743L1143.2,983.781L1143.34,983.857L1143.49,983.932L1143.64,984.008L1143.8,984.083L1143.96,984.159L1144.13,984.235L1144.32,984.313L1144.51,984.393L1144.7,984.475L1144.91,984.558L1145.13,984.643L1145.36,984.731L1145.59,984.82L1145.84,984.91L1146.1,985.003L1146.36,985.097L1146.63,985.194L1146.92,985.292L1147.21,985.391L1147.51,985.493L1147.82,985.596L1148.14,985.702L1148.47,985.809L1148.81,985.918L1149.16,986.028L1149.52,986.141L1149.88,986.255L1150.26,986.371L1150.64,986.489L1151.04,986.609L1151.44,986.73L1151.86,986.854L1152.28,986.979L1152.71,987.106L1153.15,987.235L1153.6,987.365L1154.06,987.498L1154.53,987.632L1155.01,987.768L1155.5,987.906L1156,988.045L1156.5,988.187L1157.02,988.33L1157.54,988.475L1158.08,988.622L1158.62,988.771L1159.17,988.921L1159.74,989.074L1160.31,989.228L1160.89,989.384L1161.48,989.541L1162.08,989.701L1162.69,989.862L1163.94,990.191L1165.22,990.526L1166.54,990.869L1167.9,991.219L1169.29,991.576L1170.73,991.941L1172.19,992.312L1173.7,992.691L1127.26,1090.91L1073.23,1199.54L1043.95,1191.9L1041.21,1200.34L1074.08,1207.61L1072.03,1275.79L1072.03,1333.5L1047.52,1335.45L1047.52,1344.81L1076.41,1344.81L1118.81,1419.44L1098.81,1444.32L1105.21,1449.41L1125.12,1426.33L1131.57,1429.87L1115.18,1455.33L1121.34,1459.46L1139.41,1434.16L1185.55,1459.46L1261.13,1485.79L1261.13,1509.09L1265.62,1509.09L1265.62,1485.79L1284.07,1485.79L1298.44,1517.37L1306.81,1513.71L1293.52,1483.64L1334.83,1460.49L1352.64,1496.81L1361.34,1492.63L1346.38,1461.01L1382.69,1461L1459.49,1458.95L1459.49,1488.12L1462.83,1488.12L1462.83,1457.55L1567.42,1416.5L1620.3,1352.14L1657.06,1368.78L1659.39,1361.79ZM1563.86,1411.6L1458.05,1453.12L1382.61,1455.14L1346.38,1455.14L1342.07,1461.94L1340.09,1457.91L1331.96,1455.38L1287.9,1480.06L1287.84,1479.93L1265.62,1479.93L1264.72,1480.83L1187.94,1454.08L1137.66,1426.52L1135.58,1429.43L1134.39,1424.72L1125.85,1420.05L1125.88,1420.01L1079.82,1338.94L1077.52,1338.94L1077.89,1338.91L1077.89,1275.88L1080.09,1202.93L1078.29,1202.53L1132.54,1093.47L1179,995.198L1177.65,992.327L1179.83,992.787L1197.78,971.775L1195.98,966.601L1195.96,966.556L1202.04,968.946L1264.32,936.7L1369.82,917.554L1371.38,911.826L1376.15,918.594L1413.27,922.428L1507.75,952.395L1533.29,976.196L1587.14,1087.8L1589.07,1088.35L1588.26,1088.89L1651.77,1221L1659.86,1222.17L1653.74,1228.82L1650.91,1258.85L1653.71,1260.93L1649,1262.3L1615.79,1347.89L1616.09,1348.03L1563.86,1411.6Z" style="fill:rgb(221,136,23);"/>
                    </g>
                    <g transform="matrix(-0.424893,0.905243,-0.905243,-0.424893,1442.23,75.9725)">
                        <g id="local-community" serif:id="local community">
                            <g transform="matrix(0.219051,-0.975713,0.975713,0.219051,-214.674,976.35)">
                                <text x="502.586px" y="622.281px" style="font-family:'Inter-Medium', 'Inter';font-weight:500;font-size:42px;">L</text>
                            </g>
                            <g transform="matrix(0.301308,-0.953527,0.953527,0.301308,-216.112,902.561)">
                                <text x="507.821px" y="598.748px" style="font-family:'Inter-Medium', 'Inter';font-weight:500;font-size:42px;">o</text>
                            </g>
                            <g transform="matrix(0.384492,-0.923129,0.923129,0.384492,-212.667,829.412)">
                                <text x="515.635px" y="574.183px" style="font-family:'Inter-Medium', 'Inter';font-weight:500;font-size:42px;">c</text>
                            </g>
                            <g transform="matrix(0.459799,-0.888023,0.888023,0.459799,-206.448,764.295)">
                                <text x="524.979px" y="551.834px" style="font-family:'Inter-Medium', 'Inter';font-weight:500;font-size:42px;">a</text>
                            </g>
                            <g transform="matrix(0.515248,-0.857041,0.857041,0.515248,-194.489,716.784)">
                                <text x="536.393px" y="530.321px" style="font-family:'Inter-Medium', 'Inter';font-weight:500;font-size:42px;">l</text>
                            </g>
                            <g transform="matrix(0.5999,-0.800075,0.800075,0.5999,-189.657,643.134)">
                                <text x="548.205px" y="511.194px" style="font-family:'Inter-Medium', 'Inter';font-weight:500;font-size:42px;">c</text>
                            </g>
                            <g transform="matrix(0.666815,-0.745223,0.745223,0.666815,-178.977,583.224)">
                                <text x="562.75px" y="491.768px" style="font-family:'Inter-Medium', 'Inter';font-weight:500;font-size:42px;">o</text>
                            </g>
                            <g transform="matrix(0.744477,-0.667648,0.667648,0.744477,-167.261,507.735)">
                                <text x="579.692px" y="472.383px" style="font-family:'Inter-Medium', 'Inter';font-weight:500;font-size:42px;">m</text>
                            </g>
                            <g transform="matrix(0.825156,-0.564905,0.564905,0.825156,-146.423,421.507)">
                                <text x="607.714px" y="447.292px" style="font-family:'Inter-Medium', 'Inter';font-weight:500;font-size:42px;">m</text>
                            </g>
                            <g transform="matrix(0.882111,-0.471041,0.471041,0.882111,-125.537,351.196)">
                                <text x="638.858px" y="426.398px" style="font-family:'Inter-Medium', 'Inter';font-weight:500;font-size:42px;">u</text>
                            </g>
                            <g transform="matrix(0.92068,-0.390317,0.390317,0.92068,-109.309,290.986)">
                                <text x="661.289px" y="414.439px" style="font-family:'Inter-Medium', 'Inter';font-weight:500;font-size:42px;">n</text>
                            </g>
                            <g transform="matrix(0.943755,-0.330645,0.330645,0.943755,-95.302,249.199)">
                                <text x="684.83px" y="404.725px" style="font-family:'Inter-Medium', 'Inter';font-weight:500;font-size:42px;">i</text>
                            </g>
                            <g transform="matrix(0.958195,-0.286117,0.286117,0.958195,-85.6985,215.642)">
                                <text x="695.081px" y="401.083px" style="font-family:'Inter-Medium', 'Inter';font-weight:500;font-size:42px;">t</text>
                            </g>
                            <g transform="matrix(0.976225,-0.216762,0.216762,0.976225,-69.0258,163.42)">
                                <text x="710.442px" y="396.366px" style="font-family:'Inter-Medium', 'Inter';font-weight:500;font-size:42px;">y</text>
                            </g>
                        </g>
                    </g>
                </g>
                <g id="donut-heat-water-electricity-food" serif:id="donut heat-water-electricity-food" transform="matrix(0.707107,0.707107,-0.707107,0.707107,500,-207.107)">
                    <g id="water">
                        <g id="background-water" transform="matrix(5.80487e-17,-0.948007,0.948007,5.80487e-17,-69.7524,1047)">
                            <path d="M815.672,601C828.822,601 841.292,595.159 849.71,585.056C858.127,574.953 861.622,561.634 859.248,548.7C837.782,432.125 745.875,340.218 629.3,318.754C616.367,316.381 603.047,319.875 592.945,328.292C582.843,336.709 577.002,349.179 577.002,362.328C577,411.478 577,480.46 577,480.46C643.572,480.46 697.54,534.428 697.54,601C697.54,601 766.522,601 815.672,601Z" style="fill:rgb(126,169,203);"/>
                        </g>
                        <g transform="matrix(1.19434e-15,-1,1,1.19434e-15,-86.0781,1077)">
                            <g id="water1" serif:id="water">
                                <g transform="matrix(0.839811,0.54288,-0.54288,0.839811,331.804,-295.829)">
                                    <text x="667.183px" y="414.325px" style="font-family:'Inter-Medium', 'Inter';font-weight:500;font-size:42px;">w</text>
                                </g>
                                <g transform="matrix(0.748727,0.662878,-0.662878,0.748727,462.554,-352.644)">
                                    <text x="696.429px" y="433.805px" style="font-family:'Inter-Medium', 'Inter';font-weight:500;font-size:42px;">a</text>
                                </g>
                                <g transform="matrix(0.674794,0.738006,-0.738006,0.674794,564.534,-380.881)">
                                    <text x="714.444px" y="450.122px" style="font-family:'Inter-Medium', 'Inter';font-weight:500;font-size:42px;">t</text>
                                </g>
                                <g transform="matrix(0.592285,0.805728,-0.805728,0.592285,667.893,-396.211)">
                                    <text x="725.444px" y="461.842px" style="font-family:'Inter-Medium', 'Inter';font-weight:500;font-size:42px;">e</text>
                                </g>
                                <g transform="matrix(0.497497,0.867466,-0.867466,0.497497,790.215,-399.75)">
                                    <text x="740.15px" y="482.195px" style="font-family:'Inter-Medium', 'Inter';font-weight:500;font-size:42px;">r</text>
                                </g>
                            </g>
                        </g>
                    </g>
                    <g id="electricity">
                        <g id="background-electricity" transform="matrix(0.948007,0,0,0.948007,-47.0003,-69.7524)">
                            <path d="M815.672,601C828.822,601 841.292,595.159 849.71,585.056C858.127,574.953 861.622,561.634 859.248,548.7C837.782,432.125 745.875,340.218 629.3,318.754C616.367,316.381 603.047,319.875 592.945,328.292C582.843,336.709 577.002,349.179 577.002,362.328C577,411.478 577,480.46 577,480.46C643.572,480.46 697.54,534.428 697.54,601C697.54,601 766.522,601 815.672,601Z" style="fill:rgb(211,172,113);"/>
                        </g>
                        <g transform="matrix(1,0,0,1,-77,-86.0781)">
                            <g id="electricity1" serif:id="electricity">
                                <g transform="matrix(0.94871,0.316148,-0.316148,0.94871,158.231,-177.581)">
                                    <text x="626.413px" y="398.87px" style="font-family:'Inter-Medium', 'Inter';font-weight:500;font-size:42px;">e</text>
                                </g>
                                <g transform="matrix(0.914935,0.403601,-0.403601,0.914935,219.623,-227.751)">
                                    <text x="650.107px" y="407.139px" style="font-family:'Inter-Medium', 'Inter';font-weight:500;font-size:42px;">l</text>
                                </g>
                                <g transform="matrix(0.873237,0.487295,-0.487295,0.873237,284.099,-269.592)">
                                    <text x="660.226px" y="411.263px" style="font-family:'Inter-Medium', 'Inter';font-weight:500;font-size:42px;">e</text>
                                </g>
                                <g transform="matrix(0.803951,0.594696,-0.594696,0.803951,385.597,-322.613)">
                                    <text x="682.106px" y="423.529px" style="font-family:'Inter-Medium', 'Inter';font-weight:500;font-size:42px;">c</text>
                                </g>
                                <g transform="matrix(0.73876,0.673969,-0.673969,0.73876,478.58,-358.324)">
                                    <text x="701.508px" y="438.178px" style="font-family:'Inter-Medium', 'Inter';font-weight:500;font-size:42px;">t</text>
                                </g>
                                <g transform="matrix(0.675069,0.737754,-0.737754,0.675069,563.036,-380.421)">
                                    <text x="713.391px" y="448.976px" style="font-family:'Inter-Medium', 'Inter';font-weight:500;font-size:42px;">r</text>
                                </g>
                                <g transform="matrix(0.625501,0.780224,-0.780224,0.625501,631.203,-392.551)">
                                    <text x="724.518px" y="461.241px" style="font-family:'Inter-Medium', 'Inter';font-weight:500;font-size:42px;">i</text>
                                </g>
                                <g transform="matrix(0.552002,0.833843,-0.833843,0.552002,719.282,-399.644)">
                                    <text x="731.563px" y="469.565px" style="font-family:'Inter-Medium', 'Inter';font-weight:500;font-size:42px;">c</text>
                                </g>
                                <g transform="matrix(0.474348,0.880338,-0.880338,0.474348,822.77,-398.026)">
                                    <text x="744.683px" y="489.955px" style="font-family:'Inter-Medium', 'Inter';font-weight:500;font-size:42px;">i</text>
                                </g>
                                <g transform="matrix(0.412668,0.910881,-0.910881,0.412668,895.408,-389.704)">
                                    <text x="749.896px" y="499.483px" style="font-family:'Inter-Medium', 'Inter';font-weight:500;font-size:42px;">t</text>
                                </g>
                                <g transform="matrix(0.313947,0.94944,-0.94944,0.313947,1007.23,-365.766)">
                                    <text x="756.71px" y="514.078px" style="font-family:'Inter-Medium', 'Inter';font-weight:500;font-size:42px;">y</text>
                                </g>
                            </g>
                        </g>
                    </g>
                    <g id="food">
                        <g id="background-food" transform="matrix(5.80487e-17,0.948007,-0.948007,5.80487e-17,1069.75,-47.0003)">
                            <path d="M815.672,601C828.822,601 841.292,595.159 849.71,585.056C858.127,574.953 861.622,561.634 859.248,548.7C837.782,432.125 745.875,340.218 629.3,318.754C616.367,316.381 603.047,319.875 592.945,328.292C582.843,336.709 577.002,349.179 577.002,362.328C577,411.478 577,480.46 577,480.46C643.572,480.46 697.54,534.428 697.54,601C697.54,601 766.522,601 815.672,601Z" style="fill:rgb(123,199,108);"/>
                        </g>
                        <g transform="matrix(6.12323e-17,1,-1,6.12323e-17,1086.08,-77)">
                            <g id="food1" serif:id="food">
                                <g transform="matrix(-0.557315,-0.830301,0.830301,-0.557315,752.616,1371.64)">
                                    <text x="741.96px" y="485.186px" style="font-family:'Inter-Medium', 'Inter';font-weight:500;font-size:42px;">f</text>
                                </g>
                                <g transform="matrix(-0.642248,-0.766497,0.766497,-0.642248,842.576,1336.82)">
                                    <text x="733.26px" y="471.781px" style="font-family:'Inter-Medium', 'Inter';font-weight:500;font-size:42px;">o</text>
                                </g>
                                <g transform="matrix(-0.737754,-0.675069,0.675069,-0.737754,940.273,1269.4)">
                                    <text x="716.699px" y="452.063px" style="font-family:'Inter-Medium', 'Inter';font-weight:500;font-size:42px;">o</text>
                                </g>
                                <g transform="matrix(-0.819913,-0.572488,0.572488,-0.819913,1020.85,1190.55)">
                                    <text x="697.679px" y="434.714px" style="font-family:'Inter-Medium', 'Inter';font-weight:500;font-size:42px;">d</text>
                                </g>
                            </g>
                        </g>
                    </g>
                    <g id="Heat">
                        <g id="background-heat" transform="matrix(-0.948007,-1.16097e-16,1.16097e-16,-0.948007,1047,1069.75)">
                            <path d="M815.672,601C828.822,601 841.292,595.159 849.71,585.056C858.127,574.953 861.622,561.634 859.248,548.7C837.782,432.125 745.875,340.218 629.3,318.754C616.367,316.381 603.047,319.875 592.945,328.292C582.843,336.709 577.002,349.179 577.002,362.328C577,411.478 577,480.46 577,480.46C643.572,480.46 697.54,534.428 697.54,601C697.54,601 766.522,601 815.672,601Z" style="fill:rgb(219,122,113);"/>
                        </g>
                        <g transform="matrix(-1,-1.22465e-16,1.22465e-16,-1,1077,1086.08)">
                            <g id="heat">
                                <g transform="matrix(0.815598,0.57862,-0.57862,0.815598,368.738,-314.843)">
                                    <text x="678.328px" y="421.094px" style="font-family:'Inter-Medium', 'Inter';font-weight:500;font-size:42px;">h</text>
                                </g>
                                <g transform="matrix(0.733209,0.680003,-0.680003,0.733209,483.058,-359.189)">
                                    <text x="699.284px" y="436.021px" style="font-family:'Inter-Medium', 'Inter';font-weight:500;font-size:42px;">e</text>
                                </g>
                                <g transform="matrix(0.643106,0.765778,-0.765778,0.643106,603.135,-387.821)">
                                    <text x="717.635px" y="453.154px" style="font-family:'Inter-Medium', 'Inter';font-weight:500;font-size:42px;">a</text>
                                </g>
                                <g transform="matrix(0.558562,0.829463,-0.829463,0.558562,715.092,-399.714)">
                                    <text x="733.077px" y="471.973px" style="font-family:'Inter-Medium', 'Inter';font-weight:500;font-size:42px;">t</text>
                                </g>
                            </g>
                        </g>
                    </g>
                    <g id="circular-arrow" serif:id="circular arrow" transform="matrix(0.707107,-0.707107,0.707107,0.707107,-207.523,500.416)">
                        <g transform="matrix(1,0,0,1,-1482.11,0)">
                            <path d="M1855.71,506.105L1845.16,506.105C1847.47,552.942 1874.83,597.464 1916.05,620.353C1936.34,631.622 1959.64,637.56 1982.81,637.596L1982.81,640.596C1947.25,640.541 1911.85,626.507 1885.99,601.987C1859.87,577.231 1843.89,542.357 1842.16,506.105L1831.29,506.105L1843.5,493.895L1855.71,506.105Z" style="fill-rule:nonzero;"/>
                        </g>
                        <g transform="matrix(1,0,0,1,-1482.11,0)">
                            <path d="M2120.47,493.895C2119.03,462.413 2106.46,431.127 2085.07,407.458C2059.28,378.915 2021.28,362.042 1982.81,361.982L1982.81,358.982C1982.96,358.982 1983.11,358.982 1983.26,358.983C2031.59,359.213 2078.92,385.987 2103.87,427.889C2115.72,447.787 2122.47,470.607 2123.48,493.895L2134.11,493.895L2121.9,506.105L2109.68,493.895L2120.47,493.895Z" style="fill-rule:nonzero;"/>
                        </g>
                        <g transform="matrix(1,0,0,1,-1482.11,0)">
                            <path d="M1976,359.164L1976,348.592L1988.22,360.802L1976,373.013L1976,362.17C1930.61,364.608 1887.33,390.51 1864.11,429.781C1851.63,450.874 1845.05,475.442 1845,499.792L1842,499.786C1842.06,468.145 1853.06,436.583 1872.84,411.883C1897.77,380.747 1936.23,361.232 1976,359.164Z" style="fill-rule:nonzero;"/>
                        </g>
                        <g transform="matrix(1,0,0,1,-1482.11,0)">
                            <path d="M1989.9,637.391C2035.62,634.824 2079.5,608.352 2102.55,567.998C2114.35,547.355 2120.58,523.469 2120.62,499.787C2121.62,499.788 2122.62,499.79 2123.62,499.791C2123.57,530.355 2113.35,560.761 2094.86,585.028C2070.14,617.476 2030.98,638.189 1989.9,640.4L1989.9,651.408L1977.69,639.198L1989.9,626.987L1989.9,637.391Z" style="fill-rule:nonzero;"/>
                        </g>
                    </g>
                </g>
                <g id="core-P2P-production" serif:id="core P2P-production" transform="matrix(1.06512,0,0,1.06512,-32.5581,-32.5581)">
                    <g transform="matrix(137.615,0,0,0.955556,-68196.5,22.7)">
                        <ellipse cx="499.194" cy="499.5" rx="0.781" ry="112.5" style="fill:rgb(243,243,243);"/>
                    </g>
                    <g transform="matrix(1,0,0,1,1.09167,-7.32404)">
                        <text x="464.324px" y="501.462px" style="font-family:'Inter-Medium', 'Inter';font-weight:500;font-size:36px;">P<tspan x="487.695px 510.133px " y="501.462px 501.462px ">2P</tspan></text>
                        <text x="402.902px" y="537.462px" style="font-family:'Inter-Medium', 'Inter';font-weight:500;font-size:36px;">P<tspan x="426.273px 440.465px 462.507px 485.393px 507.153px 527.955px 541.7px 551.022px 573.064px " y="537.462px 537.462px 537.462px 537.462px 537.462px 537.462px 537.462px 537.462px 537.462px ">roduction</tspan></text>
                    </g>
                </g>
            </g>
        </g>
    </g>
    <defs>
        <radialGradient id="_Radial2" cx="0" cy="0" r="1" gradientUnits="userSpaceOnUse" gradientTransform="matrix(-1.37027e-30,286.086,-286.086,-1.37027e-30,577.914,600.086)"><stop offset="0" style="stop-color:white;stop-opacity:0"/><stop offset="0.64" style="stop-color:rgb(255,241,217);stop-opacity:0.14902"/><stop offset="0.84" style="stop-color:rgb(255,205,117);stop-opacity:0.541176"/><stop offset="1" style="stop-color:rgb(255,162,0);stop-opacity:1"/></radialGradient>
        <radialGradient id="_Radial3" cx="0" cy="0" r="1" gradientUnits="userSpaceOnUse" gradientTransform="matrix(-1.37027e-30,286.086,-286.086,-1.37027e-30,577.914,600.086)"><stop offset="0" style="stop-color:white;stop-opacity:0"/><stop offset="0.64" style="stop-color:rgb(217,249,255);stop-opacity:0.14902"/><stop offset="0.84" style="stop-color:rgb(117,233,255);stop-opacity:0.541176"/><stop offset="1" style="stop-color:rgb(0,214,255);stop-opacity:1"/></radialGradient>
        <radialGradient id="_Radial4" cx="0" cy="0" r="1" gradientUnits="userSpaceOnUse" gradientTransform="matrix(-1.37027e-30,286.086,-286.086,-1.37027e-30,577.914,600.086)"><stop offset="0" style="stop-color:white;stop-opacity:0"/><stop offset="0.64" style="stop-color:rgb(255,236,253);stop-opacity:0.14902"/><stop offset="0.84" style="stop-color:rgb(255,186,249);stop-opacity:0.541176"/><stop offset="1" style="stop-color:rgb(255,128,244);stop-opacity:1"/></radialGradient>
    </defs>
</svg>
